<svg version="1.2" baseProfile="tiny" xmlns="http://www.w3.org/2000/svg" xmlns:xlink="http://www.w3.org/1999/xlink" x="0px" y="0px" width="540px" height="540px" viewBox="0 0 540 540" xml:space="preserve">
  <path fill="#FC3D60" d="M420,221.334c-48.545,0-75.711-11.454-99.679-21.558c-17.154-7.232-31.971-13.479-50.321-13.479
    s-33.167,6.247-50.321,13.479c-23.968,10.104-51.134,21.558-99.679,21.558v21.898c52.972,0,83.587-12.907,108.187-23.278
    c15.582-6.57,27.89-11.759,41.813-11.759s26.23,5.189,41.814,11.759c24.599,10.371,55.214,23.278,108.186,23.278V221.334z"/>
  <path fill="#FC4C59" d="M420,261.407c-57.002,0-85.715-9.227-108.785-16.639c-14.266-4.585-26.586-8.544-41.215-8.544
    s-26.949,3.959-41.215,8.544c-23.07,7.412-51.783,16.639-108.785,16.639v21.898c60.435,0,92.252-10.225,115.485-17.69
    c13.537-4.35,23.316-7.493,34.515-7.493s20.978,3.143,34.515,7.493c23.233,7.465,55.052,17.69,115.485,17.69V261.407z"/>
  <path fill="#FD5B53" d="M420,301.479c-66.158,0-95.925-6.275-117.66-10.857c-11.854-2.498-21.22-4.473-32.34-4.473
    s-20.485,1.975-32.34,4.473c-21.735,4.582-51.502,10.857-117.66,10.857v21.896c68.44,0,100.778-6.814,122.176-11.326
    c11.023-2.322,18.986-4.002,27.824-4.002s16.801,1.68,27.824,4.002c21.397,4.512,53.734,11.326,122.176,11.326V301.479z"/>
  <path fill="#FD6B4C" d="M420,341.551c-66.888,0-98.306-2.365-119.096-3.932c-11.461-0.861-20.515-1.543-30.904-1.543
    s-19.442,0.682-30.904,1.543c-20.79,1.566-52.208,3.932-119.096,3.932v21.898c67.711,0,99.623-2.404,120.74-3.994
    c11.432-0.859,19.692-1.482,29.26-1.482s17.828,0.623,29.26,1.482c21.117,1.59,53.029,3.994,120.74,3.994V341.551z"/>
  <path fill="#FC2769" d="M420,181.24c-40.739,0-67.127-13.284-90.409-25.005c-19.194-9.663-37.326-18.79-59.591-18.79
    c-22.286,0-40.495,9.143-59.772,18.823C186.917,167.973,160.494,181.24,120,181.24v21.898c45.683,0,75.83-15.137,100.053-27.301
    c17.628-8.851,32.851-16.494,49.947-16.494c17.064,0,32.208,7.623,49.744,16.452c24.2,12.181,54.315,27.343,100.256,27.343V181.24z"/>
  <polygon fill="#FC2769" points="397.646,146.787 397.646,143.557 384.458,143.557 384.458,146.787 389.3,146.787 389.3,159.475 
    392.802,159.475 392.802,146.787"/>
  <polygon fill="#FC2769" points="420,159.475 420,143.557 416.225,143.557 412.042,150.288 407.858,143.557 404.083,143.557 
    404.083,159.475 407.516,159.475 407.516,149.151 411.951,155.883 412.042,155.883 416.522,149.082 416.522,159.475"/>
  <rect x="120" y="381.555" fill="#FD7A45" width="300" height="21"/>
</svg>